<mxfile host="Electron" agent="Mozilla/5.0 (Windows NT 10.0; Win64; x64) AppleWebKit/537.36 (KHTML, like Gecko) draw.io/26.0.9 Chrome/128.0.6613.186 Electron/32.2.5 Safari/537.36" version="26.0.9">
  <diagram name="Page-1" id="DZfTlKiHmt3aFLI8Hxoc">
    <mxGraphModel dx="1900" dy="621" grid="1" gridSize="10" guides="1" tooltips="1" connect="1" arrows="1" fold="1" page="1" pageScale="1" pageWidth="850" pageHeight="1100" background="#ffffff" math="0" shadow="0">
      <root>
        <mxCell id="0" />
        <mxCell id="1" parent="0" />
        <mxCell id="IFHoaXPSa4m4b30Pd978-1" value="&lt;b&gt;User&lt;/b&gt;" style="rounded=0;whiteSpace=wrap;html=1;fillColor=#fff2cc;gradientColor=#ffd966;strokeColor=#d6b656;" parent="1" vertex="1">
          <mxGeometry x="325" y="140" width="100" height="40" as="geometry" />
        </mxCell>
        <mxCell id="IFHoaXPSa4m4b30Pd978-2" value="&lt;b&gt;2.0&lt;/b&gt;" style="swimlane;childLayout=stackLayout;horizontal=1;startSize=30;horizontalStack=0;rounded=1;fontSize=14;fontStyle=0;strokeWidth=2;resizeParent=0;resizeLast=1;shadow=0;dashed=0;align=center;arcSize=4;whiteSpace=wrap;html=1;fillColor=#ffcd28;gradientColor=#ffa500;strokeColor=#d79b00;" parent="1" vertex="1">
          <mxGeometry x="110" y="310" width="122" height="90" as="geometry" />
        </mxCell>
        <mxCell id="IFHoaXPSa4m4b30Pd978-3" value="&lt;div&gt;&lt;b&gt;&lt;br&gt;&lt;/b&gt;&lt;/div&gt;&lt;b&gt;Book Catalog&amp;nbsp;&lt;/b&gt;&lt;div&gt;&lt;b&gt;Management&lt;/b&gt;&lt;/div&gt;" style="align=center;strokeColor=#d79b00;fillColor=#ffcd28;spacingLeft=4;fontSize=12;verticalAlign=top;resizable=0;rotatable=0;part=1;html=1;gradientColor=#ffa500;" parent="IFHoaXPSa4m4b30Pd978-2" vertex="1">
          <mxGeometry y="30" width="122" height="60" as="geometry" />
        </mxCell>
        <mxCell id="IFHoaXPSa4m4b30Pd978-6" value="&lt;b&gt;4.0&lt;/b&gt;" style="swimlane;childLayout=stackLayout;horizontal=1;startSize=30;horizontalStack=0;rounded=1;fontSize=14;fontStyle=0;strokeWidth=2;resizeParent=0;resizeLast=1;shadow=0;dashed=0;align=center;arcSize=4;whiteSpace=wrap;html=1;fillColor=#ffcd28;gradientColor=#ffa500;strokeColor=#d79b00;" parent="1" vertex="1">
          <mxGeometry x="314" y="310" width="122" height="90" as="geometry" />
        </mxCell>
        <mxCell id="IFHoaXPSa4m4b30Pd978-7" value="&lt;div&gt;&lt;b&gt;Reservation&amp;nbsp;&lt;/b&gt;&lt;/div&gt;&lt;div&gt;&lt;b&gt;and&lt;/b&gt;&lt;/div&gt;&lt;div&gt;&lt;b&gt;Notifications&lt;/b&gt;&lt;/div&gt;" style="align=center;strokeColor=#d79b00;fillColor=#ffcd28;spacingLeft=4;fontSize=12;verticalAlign=top;resizable=0;rotatable=0;part=1;html=1;gradientColor=#ffa500;" parent="IFHoaXPSa4m4b30Pd978-6" vertex="1">
          <mxGeometry y="30" width="122" height="60" as="geometry" />
        </mxCell>
        <mxCell id="IFHoaXPSa4m4b30Pd978-8" value="&lt;b&gt;3.0&lt;/b&gt;" style="swimlane;childLayout=stackLayout;horizontal=1;startSize=30;horizontalStack=0;rounded=1;fontSize=14;fontStyle=0;strokeWidth=2;resizeParent=0;resizeLast=1;shadow=0;dashed=0;align=center;arcSize=4;whiteSpace=wrap;html=1;fillColor=#ffcd28;gradientColor=#ffa500;strokeColor=#d79b00;" parent="1" vertex="1">
          <mxGeometry x="580" y="310" width="122" height="90" as="geometry" />
        </mxCell>
        <mxCell id="IFHoaXPSa4m4b30Pd978-9" value="&lt;div&gt;&lt;b&gt;Borrowing&amp;nbsp;&lt;/b&gt;&lt;/div&gt;&lt;div&gt;&lt;b&gt;System&lt;/b&gt;&lt;/div&gt;" style="align=center;strokeColor=#d79b00;fillColor=#ffcd28;spacingLeft=4;fontSize=12;verticalAlign=top;resizable=0;rotatable=0;part=1;html=1;gradientColor=#ffa500;" parent="IFHoaXPSa4m4b30Pd978-8" vertex="1">
          <mxGeometry y="30" width="122" height="60" as="geometry" />
        </mxCell>
        <mxCell id="IFHoaXPSa4m4b30Pd978-10" value="&lt;b&gt;Admin&lt;/b&gt;" style="rounded=0;whiteSpace=wrap;html=1;fillColor=#fff2cc;gradientColor=#ffd966;strokeColor=#d6b656;" parent="1" vertex="1">
          <mxGeometry x="190" y="650" width="100" height="40" as="geometry" />
        </mxCell>
        <mxCell id="IFHoaXPSa4m4b30Pd978-11" value="&lt;b&gt;1.0&lt;/b&gt;" style="swimlane;childLayout=stackLayout;horizontal=1;startSize=30;horizontalStack=0;rounded=1;fontSize=14;fontStyle=0;strokeWidth=2;resizeParent=0;resizeLast=1;shadow=0;dashed=0;align=center;arcSize=4;whiteSpace=wrap;html=1;fillColor=#ffcd28;gradientColor=#ffa500;strokeColor=#d79b00;" parent="1" vertex="1">
          <mxGeometry x="110" y="480" width="122" height="90" as="geometry" />
        </mxCell>
        <mxCell id="IFHoaXPSa4m4b30Pd978-12" value="&lt;div&gt;&lt;b&gt;User&amp;nbsp;&lt;/b&gt;&lt;/div&gt;&lt;div&gt;&lt;b&gt;Management&lt;/b&gt;&lt;/div&gt;" style="align=center;strokeColor=#d79b00;fillColor=#ffcd28;spacingLeft=4;fontSize=12;verticalAlign=top;resizable=0;rotatable=0;part=1;html=1;gradientColor=#ffa500;" parent="IFHoaXPSa4m4b30Pd978-11" vertex="1">
          <mxGeometry y="30" width="122" height="60" as="geometry" />
        </mxCell>
        <mxCell id="IFHoaXPSa4m4b30Pd978-14" value="" style="endArrow=none;html=1;rounded=0;entryX=0;entryY=0.5;entryDx=0;entryDy=0;exitX=0.5;exitY=0;exitDx=0;exitDy=0;startArrow=block;startFill=1;edgeStyle=orthogonalEdgeStyle;" parent="1" source="IFHoaXPSa4m4b30Pd978-2" target="IFHoaXPSa4m4b30Pd978-1" edge="1">
          <mxGeometry width="50" height="50" relative="1" as="geometry">
            <mxPoint x="270" y="280" as="sourcePoint" />
            <mxPoint x="320" y="230" as="targetPoint" />
          </mxGeometry>
        </mxCell>
        <mxCell id="IFHoaXPSa4m4b30Pd978-15" value="" style="endArrow=none;html=1;rounded=0;entryX=0.5;entryY=1;entryDx=0;entryDy=0;exitX=0.5;exitY=0;exitDx=0;exitDy=0;startArrow=block;startFill=1;" parent="1" source="IFHoaXPSa4m4b30Pd978-6" target="IFHoaXPSa4m4b30Pd978-1" edge="1">
          <mxGeometry width="50" height="50" relative="1" as="geometry">
            <mxPoint x="310" y="300" as="sourcePoint" />
            <mxPoint x="360" y="250" as="targetPoint" />
          </mxGeometry>
        </mxCell>
        <mxCell id="IFHoaXPSa4m4b30Pd978-16" value="" style="endArrow=block;html=1;rounded=0;exitX=1;exitY=0.5;exitDx=0;exitDy=0;entryX=0.5;entryY=0;entryDx=0;entryDy=0;edgeStyle=orthogonalEdgeStyle;endFill=1;" parent="1" source="IFHoaXPSa4m4b30Pd978-1" target="IFHoaXPSa4m4b30Pd978-8" edge="1">
          <mxGeometry width="50" height="50" relative="1" as="geometry">
            <mxPoint x="530" y="250" as="sourcePoint" />
            <mxPoint x="580" y="200" as="targetPoint" />
          </mxGeometry>
        </mxCell>
        <mxCell id="IFHoaXPSa4m4b30Pd978-17" value="Issue/Return&lt;div&gt;Book&lt;/div&gt;" style="text;html=1;align=center;verticalAlign=middle;resizable=0;points=[];autosize=1;strokeColor=none;fillColor=none;" parent="1" vertex="1">
          <mxGeometry x="640" y="203" width="90" height="40" as="geometry" />
        </mxCell>
        <mxCell id="IFHoaXPSa4m4b30Pd978-18" value="Reserve Book" style="text;html=1;align=center;verticalAlign=middle;resizable=0;points=[];autosize=1;strokeColor=none;fillColor=none;" parent="1" vertex="1">
          <mxGeometry x="375" y="228" width="100" height="30" as="geometry" />
        </mxCell>
        <mxCell id="IFHoaXPSa4m4b30Pd978-19" value="Search/New Book" style="text;html=1;align=center;verticalAlign=middle;resizable=0;points=[];autosize=1;strokeColor=none;fillColor=none;" parent="1" vertex="1">
          <mxGeometry x="170" y="213" width="120" height="30" as="geometry" />
        </mxCell>
        <mxCell id="IFHoaXPSa4m4b30Pd978-25" value="" style="group" parent="1" vertex="1" connectable="0">
          <mxGeometry x="130" y="760" width="160" height="50" as="geometry" />
        </mxCell>
        <mxCell id="IFHoaXPSa4m4b30Pd978-21" value="User Accounts" style="rounded=0;whiteSpace=wrap;html=1;fillColor=#cce5ff;strokeColor=#36393d;" parent="IFHoaXPSa4m4b30Pd978-25" vertex="1">
          <mxGeometry width="160" height="50" as="geometry" />
        </mxCell>
        <mxCell id="IFHoaXPSa4m4b30Pd978-22" value="" style="endArrow=none;html=1;rounded=0;entryX=0.212;entryY=0.01;entryDx=0;entryDy=0;entryPerimeter=0;exitX=0.217;exitY=0.985;exitDx=0;exitDy=0;exitPerimeter=0;" parent="IFHoaXPSa4m4b30Pd978-25" source="IFHoaXPSa4m4b30Pd978-21" target="IFHoaXPSa4m4b30Pd978-21" edge="1">
          <mxGeometry width="50" height="50" relative="1" as="geometry">
            <mxPoint y="70" as="sourcePoint" />
            <mxPoint x="50" y="20" as="targetPoint" />
          </mxGeometry>
        </mxCell>
        <mxCell id="IFHoaXPSa4m4b30Pd978-30" value="Transaction Logs" style="rounded=0;whiteSpace=wrap;html=1;fillColor=#cce5ff;strokeColor=#36393d;" parent="1" vertex="1">
          <mxGeometry x="550" y="560" width="160" height="50" as="geometry" />
        </mxCell>
        <mxCell id="IFHoaXPSa4m4b30Pd978-31" value="" style="endArrow=none;html=1;rounded=0;entryX=0.212;entryY=0.01;entryDx=0;entryDy=0;entryPerimeter=0;exitX=0.217;exitY=0.985;exitDx=0;exitDy=0;exitPerimeter=0;" parent="1" source="IFHoaXPSa4m4b30Pd978-30" target="IFHoaXPSa4m4b30Pd978-30" edge="1">
          <mxGeometry width="50" height="50" relative="1" as="geometry">
            <mxPoint x="760" y="710" as="sourcePoint" />
            <mxPoint x="810" y="660" as="targetPoint" />
          </mxGeometry>
        </mxCell>
        <mxCell id="IFHoaXPSa4m4b30Pd978-27" value="Book Inventory" style="rounded=0;whiteSpace=wrap;html=1;fillColor=#cce5ff;strokeColor=#36393d;" parent="1" vertex="1">
          <mxGeometry x="345" y="610" width="160" height="50" as="geometry" />
        </mxCell>
        <mxCell id="IFHoaXPSa4m4b30Pd978-28" value="" style="endArrow=none;html=1;rounded=0;entryX=0.212;entryY=0.01;entryDx=0;entryDy=0;entryPerimeter=0;exitX=0.217;exitY=0.985;exitDx=0;exitDy=0;exitPerimeter=0;" parent="1" source="IFHoaXPSa4m4b30Pd978-27" target="IFHoaXPSa4m4b30Pd978-27" edge="1">
          <mxGeometry width="50" height="50" relative="1" as="geometry">
            <mxPoint x="750" y="700" as="sourcePoint" />
            <mxPoint x="800" y="650" as="targetPoint" />
          </mxGeometry>
        </mxCell>
        <mxCell id="IFHoaXPSa4m4b30Pd978-32" value="" style="endArrow=none;html=1;rounded=0;entryX=0;entryY=0.25;entryDx=0;entryDy=0;exitX=0;exitY=0.25;exitDx=0;exitDy=0;edgeStyle=orthogonalEdgeStyle;startArrow=block;startFill=1;" parent="1" source="IFHoaXPSa4m4b30Pd978-11" target="IFHoaXPSa4m4b30Pd978-1" edge="1">
          <mxGeometry width="50" height="50" relative="1" as="geometry">
            <mxPoint x="-10" y="250" as="sourcePoint" />
            <mxPoint x="40" y="200" as="targetPoint" />
            <Array as="points">
              <mxPoint x="70" y="503" />
              <mxPoint x="70" y="150" />
            </Array>
          </mxGeometry>
        </mxCell>
        <mxCell id="IFHoaXPSa4m4b30Pd978-33" value="Register/Login" style="text;html=1;align=center;verticalAlign=middle;resizable=0;points=[];autosize=1;strokeColor=none;fillColor=none;" parent="1" vertex="1">
          <mxGeometry x="-30" y="208" width="100" height="30" as="geometry" />
        </mxCell>
        <mxCell id="IFHoaXPSa4m4b30Pd978-34" value="" style="endArrow=block;html=1;rounded=0;entryX=0;entryY=0.5;entryDx=0;entryDy=0;exitX=0.5;exitY=1;exitDx=0;exitDy=0;edgeStyle=orthogonalEdgeStyle;endFill=1;" parent="1" source="IFHoaXPSa4m4b30Pd978-11" target="IFHoaXPSa4m4b30Pd978-10" edge="1">
          <mxGeometry width="50" height="50" relative="1" as="geometry">
            <mxPoint x="70" y="730" as="sourcePoint" />
            <mxPoint x="120" y="680" as="targetPoint" />
          </mxGeometry>
        </mxCell>
        <mxCell id="IFHoaXPSa4m4b30Pd978-35" value="Manage Roles" style="text;html=1;align=center;verticalAlign=middle;resizable=0;points=[];autosize=1;strokeColor=none;fillColor=none;" parent="1" vertex="1">
          <mxGeometry x="70" y="590" width="100" height="30" as="geometry" />
        </mxCell>
        <mxCell id="IFHoaXPSa4m4b30Pd978-37" value="" style="endArrow=block;html=1;rounded=0;exitX=0.75;exitY=0;exitDx=0;exitDy=0;entryX=1;entryY=0.5;entryDx=0;entryDy=0;edgeStyle=orthogonalEdgeStyle;endFill=1;" parent="1" source="IFHoaXPSa4m4b30Pd978-10" target="IFHoaXPSa4m4b30Pd978-2" edge="1">
          <mxGeometry width="50" height="50" relative="1" as="geometry">
            <mxPoint x="290" y="560" as="sourcePoint" />
            <mxPoint x="340" y="510" as="targetPoint" />
          </mxGeometry>
        </mxCell>
        <mxCell id="IFHoaXPSa4m4b30Pd978-38" value="Add/Remove&lt;div&gt;Books&lt;/div&gt;" style="text;html=1;align=center;verticalAlign=middle;resizable=0;points=[];autosize=1;strokeColor=none;fillColor=none;" parent="1" vertex="1">
          <mxGeometry x="260" y="490" width="90" height="40" as="geometry" />
        </mxCell>
        <mxCell id="IFHoaXPSa4m4b30Pd978-39" value="" style="endArrow=none;html=1;rounded=0;entryX=1;entryY=0.5;entryDx=0;entryDy=0;exitX=1;exitY=0.5;exitDx=0;exitDy=0;edgeStyle=orthogonalEdgeStyle;startArrow=block;startFill=1;" parent="1" source="IFHoaXPSa4m4b30Pd978-30" target="IFHoaXPSa4m4b30Pd978-8" edge="1">
          <mxGeometry width="50" height="50" relative="1" as="geometry">
            <mxPoint x="620" y="530" as="sourcePoint" />
            <mxPoint x="670" y="480" as="targetPoint" />
            <Array as="points">
              <mxPoint x="740" y="585" />
              <mxPoint x="740" y="355" />
            </Array>
          </mxGeometry>
        </mxCell>
        <mxCell id="IFHoaXPSa4m4b30Pd978-40" value="Log Borrowing" style="text;html=1;align=center;verticalAlign=middle;resizable=0;points=[];autosize=1;strokeColor=none;fillColor=none;" parent="1" vertex="1">
          <mxGeometry x="730" y="440" width="100" height="30" as="geometry" />
        </mxCell>
        <mxCell id="IFHoaXPSa4m4b30Pd978-41" value="" style="endArrow=none;html=1;rounded=0;entryX=1;entryY=0.5;entryDx=0;entryDy=0;exitX=0.103;exitY=-0.016;exitDx=0;exitDy=0;edgeStyle=orthogonalEdgeStyle;exitPerimeter=0;startArrow=block;startFill=1;" parent="1" source="IFHoaXPSa4m4b30Pd978-30" target="IFHoaXPSa4m4b30Pd978-6" edge="1">
          <mxGeometry width="50" height="50" relative="1" as="geometry">
            <mxPoint x="520" y="530" as="sourcePoint" />
            <mxPoint x="570" y="480" as="targetPoint" />
          </mxGeometry>
        </mxCell>
        <mxCell id="IFHoaXPSa4m4b30Pd978-42" value="Notifications" style="text;html=1;align=center;verticalAlign=middle;resizable=0;points=[];autosize=1;strokeColor=none;fillColor=none;" parent="1" vertex="1">
          <mxGeometry x="570" y="470" width="90" height="30" as="geometry" />
        </mxCell>
        <mxCell id="IFHoaXPSa4m4b30Pd978-43" value="" style="endArrow=none;html=1;rounded=0;entryX=1;entryY=0.75;entryDx=0;entryDy=0;exitX=0.75;exitY=0;exitDx=0;exitDy=0;edgeStyle=orthogonalEdgeStyle;startArrow=block;startFill=1;" parent="1" source="IFHoaXPSa4m4b30Pd978-27" target="IFHoaXPSa4m4b30Pd978-6" edge="1">
          <mxGeometry width="50" height="50" relative="1" as="geometry">
            <mxPoint x="400" y="540" as="sourcePoint" />
            <mxPoint x="450" y="490" as="targetPoint" />
          </mxGeometry>
        </mxCell>
        <mxCell id="IFHoaXPSa4m4b30Pd978-44" value="Reserve&amp;nbsp;&lt;div&gt;Status&lt;/div&gt;" style="text;html=1;align=center;verticalAlign=middle;resizable=0;points=[];autosize=1;strokeColor=none;fillColor=none;" parent="1" vertex="1">
          <mxGeometry x="405" y="490" width="70" height="40" as="geometry" />
        </mxCell>
        <mxCell id="IFHoaXPSa4m4b30Pd978-45" value="" style="endArrow=none;html=1;rounded=0;entryX=0.75;entryY=1;entryDx=0;entryDy=0;exitX=0.25;exitY=0;exitDx=0;exitDy=0;edgeStyle=orthogonalEdgeStyle;startArrow=block;startFill=1;" parent="1" source="IFHoaXPSa4m4b30Pd978-27" target="IFHoaXPSa4m4b30Pd978-2" edge="1">
          <mxGeometry width="50" height="50" relative="1" as="geometry">
            <mxPoint x="310" y="510" as="sourcePoint" />
            <mxPoint x="360" y="460" as="targetPoint" />
            <Array as="points">
              <mxPoint x="385" y="450" />
              <mxPoint x="202" y="450" />
            </Array>
          </mxGeometry>
        </mxCell>
        <mxCell id="IFHoaXPSa4m4b30Pd978-46" value="Add/Remove/Check Books" style="text;html=1;align=center;verticalAlign=middle;resizable=0;points=[];autosize=1;strokeColor=none;fillColor=none;" parent="1" vertex="1">
          <mxGeometry x="260" y="420" width="170" height="30" as="geometry" />
        </mxCell>
        <mxCell id="IFHoaXPSa4m4b30Pd978-47" value="" style="endArrow=none;html=1;rounded=0;entryX=0;entryY=0.75;entryDx=0;entryDy=0;exitX=0.88;exitY=-0.016;exitDx=0;exitDy=0;exitPerimeter=0;edgeStyle=orthogonalEdgeStyle;startArrow=block;startFill=1;" parent="1" target="IFHoaXPSa4m4b30Pd978-9" edge="1">
          <mxGeometry width="50" height="50" relative="1" as="geometry">
            <mxPoint x="475.79999999999995" y="610" as="sourcePoint" />
            <mxPoint x="570.0000000000002" y="385.7999999999999" as="targetPoint" />
            <Array as="points">
              <mxPoint x="476" y="386" />
              <mxPoint x="580" y="386" />
            </Array>
          </mxGeometry>
        </mxCell>
        <mxCell id="IFHoaXPSa4m4b30Pd978-48" value="Check&amp;nbsp;&lt;div&gt;Availability&lt;/div&gt;" style="text;html=1;align=center;verticalAlign=middle;resizable=0;points=[];autosize=1;strokeColor=none;fillColor=none;" parent="1" vertex="1">
          <mxGeometry x="470" y="460" width="80" height="40" as="geometry" />
        </mxCell>
        <mxCell id="IFHoaXPSa4m4b30Pd978-49" value="" style="endArrow=none;html=1;rounded=0;entryX=0;entryY=0.75;entryDx=0;entryDy=0;exitX=0;exitY=0.5;exitDx=0;exitDy=0;edgeStyle=orthogonalEdgeStyle;startArrow=block;startFill=1;" parent="1" source="IFHoaXPSa4m4b30Pd978-21" target="IFHoaXPSa4m4b30Pd978-12" edge="1">
          <mxGeometry width="50" height="50" relative="1" as="geometry">
            <mxPoint x="60" y="710" as="sourcePoint" />
            <mxPoint x="110" y="660" as="targetPoint" />
            <Array as="points">
              <mxPoint x="40" y="785" />
              <mxPoint x="40" y="555" />
            </Array>
          </mxGeometry>
        </mxCell>
        <mxCell id="IFHoaXPSa4m4b30Pd978-50" value="Update/Retrieve Accounts" style="text;html=1;align=center;verticalAlign=middle;resizable=0;points=[];autosize=1;strokeColor=none;fillColor=none;" parent="1" vertex="1">
          <mxGeometry x="40" y="708" width="160" height="30" as="geometry" />
        </mxCell>
      </root>
    </mxGraphModel>
  </diagram>
</mxfile>
